# xmcd
#
# Track frame offsets: 
#        150
#        5361
#        32198
#        41940
#        57048
#        63877
#        69219
#        92494
#        100373
#        122788
#        130002
#        134416
#        165806
#        176377
#        189067
#        195112
#        200124
#        217378
#        225790
#        255333
#        262396
#        268046
#        290598
#        302086
#        320039
#
# Disc length: 4351 seconds
#
# Revision: 0
# Processed by: cddbd v1.5.2PL0 Copyright (c) Steve Scherf et al.
# Submitted via: ExactAudioCopy v1.0b1
#
DISCID=6110fd19
DTITLE=Hank Williams - The Complete Mother's Best Recordings CD14
DYEAR=2010
DGENRE=Country
TTITLE0=Introduction
TTITLE1=I Can’t Tell My Heart That
TTITLE2=Don Helms and the Drifting Cowboys: Georgia Steel Guitar
TTITLE3=Precious Lord, Take My Hand
TTITLE4=Closing
TTITLE5=Introduction
TTITLE6=Just Waitin’
TTITLE7=Jerry Rivers and the Drifting Cowboys: Eighth of January
TTITLE8=From Jerusalem to Jericho
TTITLE9=Closing
TTITLE10=Introduction
TTITLE11=I’ll Sail My Ship Alone
TTITLE12=Don Helms, Jerry Rivers and the Drifting Cowboys: Gentle Anni
TTITLE12=e
TTITLE13=I’ll Have a New Life
TTITLE14=Closing
TTITLE15=Introduction
TTITLE16=Lonesome Whistle
TTITLE17=Jerry Rivers and the Drifting Cowboys: I Don’t Love Nobody
TTITLE18=I Dreamed that the Great Judgment Morning
TTITLE19=Closing
TTITLE20=Introduction
TTITLE21=Cherokee Boogie
TTITLE22=Don Helms and the Drifting Cowboys: Columbus Stockade Blues
TTITLE23=That Beautiful Home
TTITLE24=Closing
EXTD=
EXTT0=
EXTT1=
EXTT2=
EXTT3=
EXTT4=
EXTT5=
EXTT6=
EXTT7=
EXTT8=
EXTT9=
EXTT10=
EXTT11=
EXTT12=
EXTT13=
EXTT14=
EXTT15=
EXTT16=
EXTT17=
EXTT18=
EXTT19=
EXTT20=
EXTT21=
EXTT22=
EXTT23=
EXTT24=
PLAYORDER=
